<svg xmlns="http://www.w3.org/2000/svg" id="Layer_1" data-name="Layer 1" viewBox="0 0 64 64"><defs><linearGradient id="linear-gradient" x1="-989.28" x2="-1010.37" y1="52.39" y2="25.08" gradientTransform="matrix(-1 0 0 1 -970.2 0)" gradientUnits="userSpaceOnUse"><stop offset="0" stop-color="#f2f2f2"/><stop offset="1" stop-color="#cfcfcf"/></linearGradient><linearGradient id="linear-gradient-2" x1="-1062.77" x2="-1051.15" y1="-96.39" y2="-78.75" gradientTransform="matrix(0 -1 -1 0 -44.28 -1021.58)" gradientUnits="userSpaceOnUse"><stop offset=".02" stop-color="#fff"/><stop offset="1" stop-color="#fff" stop-opacity="0"/></linearGradient><style>.cls-2,.cls-5{fill:none;stroke-linecap:round;stroke-miterlimit:10;stroke-width:3px}.cls-2{stroke:#efcc00}.cls-5{stroke:#a5a9aa}</style></defs><circle cx="39.8" cy="22" r="12.59" style="fill:#efcc00"/><path d="M39.8 2v4.44M39.8 37.56V42M19.8 22h4.45M55.36 22h4.44M25.66 7.86 28.8 11M50.8 33l3.14 3.14M25.66 36.14 28.8 33M50.8 11l3.14-3.14" class="cls-2"/><path d="M23.5 15.9A17.49 17.49 0 0 1 39 25.22a13.75 13.75 0 1 1 6.92 25.62l-22.42.06a17.5 17.5 0 0 1 0-35" style="fill:url(#linear-gradient)"/><circle cx="45.89" cy="37.09" r="13.75" style="fill:url(#linear-gradient-2)" transform="rotate(-74.39 45.886 37.086)"/><path d="M37.84 54.5h10.22" class="cls-5"/><path d="M15.94 54.5h16.8" style="fill:none;stroke-linecap:round;stroke-miterlimit:10;stroke-width:3px;stroke:#b9c1c6"/><path d="M33.23 59.5h11.32M19.96 59.5h7.69" class="cls-5"/></svg>