<svg xmlns="http://www.w3.org/2000/svg" id="Layer_1" data-name="Layer 1" viewBox="0 0 64 64"><defs><linearGradient id="linear-gradient" x1="-397.28" x2="-418.37" y1="52.39" y2="25.08" gradientTransform="matrix(-1 0 0 1 -378.03 0)" gradientUnits="userSpaceOnUse"><stop offset="0" stop-color="#f2f2f2"/><stop offset="1" stop-color="#cfcfcf"/></linearGradient><linearGradient id="linear-gradient-2" x1="-450.05" x2="-438.43" y1="48.42" y2="66.07" gradientTransform="matrix(0 -1 -1 0 100.7 -408.86)" gradientUnits="userSpaceOnUse"><stop offset=".02" stop-color="#fff"/><stop offset="1" stop-color="#fff" stop-opacity="0"/></linearGradient><style>.cls-4{fill:none;stroke:#0baeff;stroke-linecap:round;stroke-miterlimit:10;stroke-width:3px}</style></defs><path d="M50 20.71A13.88 13.88 0 0 1 37.86 2.77a.6.6 0 0 0-.86-.69A13.88 13.88 0 1 0 55.92 21a.6.6 0 0 0-.69-.89 13.9 13.9 0 0 1-5.23.6" style="fill:#efcc00"/><path d="M23.66 15.9a17.49 17.49 0 0 1 15.47 9.32A13.75 13.75 0 1 1 46 50.84l-22.39.06a17.5 17.5 0 0 1 0-35Z" style="fill:url(#linear-gradient)"/><circle cx="46.05" cy="37.09" r="13.75" style="fill:url(#linear-gradient-2)" transform="rotate(-74.39 46.051 37.087)"/><path d="M32.5 55.5v7M26.5 53.5v7M38.5 53.5v7" class="cls-4"/></svg>