<svg xmlns="http://www.w3.org/2000/svg" id="Layer_1" data-name="Layer 1" viewBox="0 0 64 64"><defs><style>.cls-1{fill:none;stroke:#b9c1c6;stroke-linecap:round;stroke-miterlimit:10;stroke-width:3px}</style></defs><path d="M32 14.5v35M36.07 9.96 32 15.04l-4.07-5.08M27.93 54.04 32 48.96l4.07 5.08M44.37 19.63 19.63 44.37M50.46 19.3 44 20l.7-6.46M13.54 44.7 20 44l-.7 6.46M49.5 32h-35M54.04 36.07 48.96 32l5.08-4.07M9.96 27.93 15.04 32l-5.08 4.07M44.37 44.37 19.63 19.63M44.7 50.46 44 44l6.46.7M19.3 13.54 20 20l-6.46-.7M19.527 31.746 32.255 19.02l12.728 12.727-12.728 12.728z" class="cls-1"/></svg>