<?xml version="1.0" standalone="no"?>
<!DOCTYPE svg PUBLIC "-//W3C//DTD SVG 20010904//EN"
 "http://www.w3.org/TR/2001/REC-SVG-20010904/DTD/svg10.dtd">
<svg version="1.0" xmlns="http://www.w3.org/2000/svg"
 width="512.000000pt" height="512.000000pt" viewBox="0 0 512.000000 512.000000"
 preserveAspectRatio="xMidYMid meet">
<metadata>
Created by potrace 1.14, written by Peter Selinger 2001-2017
</metadata>
<g transform="translate(0.000000,512.000000) scale(0.100000,-0.100000)"
fill="#000000" stroke="none">
<path d="M1590 5055 c-159 -26 -198 -35 -285 -64 -166 -54 -274 -103 -400
-179 -60 -36 -150 -98 -171 -117 -6 -5 -36 -30 -65 -55 -321 -267 -539 -655
-614 -1095 -24 -142 -24 -435 0 -557 3 -13 10 -51 15 -86 15 -93 66 -282 111
-417 187 -554 582 -1222 1128 -1905 64 -80 123 -152 131 -161 8 -9 24 -27 34
-40 53 -66 206 -237 268 -300 37 -37 75 -52 113 -45 11 3 23 5 27 5 10 1 117
110 158 161 19 24 44 53 56 64 11 12 45 50 75 86 29 36 56 67 59 70 3 3 18 21
33 40 16 19 41 51 57 70 144 172 358 462 503 680 53 80 100 150 104 156 15 19
193 316 233 389 43 76 178 350 210 425 17 41 35 84 41 95 44 95 117 322 159
495 28 115 35 152 55 310 8 64 9 317 1 374 -3 21 -8 57 -11 80 -3 22 -8 52
-10 66 -3 14 -7 34 -9 45 -22 117 -82 285 -151 425 -120 245 -286 447 -520
633 -151 121 -388 239 -600 300 -95 28 -109 31 -245 52 -106 16 -390 16 -490
0z"/>
<path d="M4241 4739 c-137 -35 -232 -89 -329 -189 -71 -72 -117 -147 -155
-253 -38 -106 -46 -266 -17 -375 60 -237 224 -412 455 -489 69 -23 97 -27 205
-27 108 0 136 4 205 27 240 80 425 288 462 522 16 100 4 149 -47 178 -35 21
-67 21 -137 1 -149 -43 -302 37 -348 182 -24 77 -16 147 28 232 51 98 36 163
-43 196 -51 20 -189 18 -279 -5z"/>
<path d="M4244 2167 l-39 -35 0 -91 c0 -89 1 -91 33 -123 28 -28 39 -33 82
-33 43 0 54 5 82 33 32 32 33 34 33 122 0 87 -1 91 -31 121 -23 23 -44 33 -77
36 -41 5 -48 2 -83 -30z"/>
<path d="M3738 2042 c-36 -22 -62 -76 -55 -116 3 -17 20 -57 38 -88 41 -72 88
-97 147 -80 94 28 114 112 52 214 -50 83 -119 110 -182 70z"/>
<path d="M4774 2038 c-17 -12 -46 -49 -64 -82 -41 -76 -38 -126 9 -168 76 -68
156 -40 214 74 31 61 33 87 12 132 -31 64 -113 85 -171 44z"/>
<path d="M4165 1701 c-174 -42 -320 -146 -416 -295 -35 -52 -73 -138 -86 -191
-18 -75 -22 -112 -18 -205 7 -211 97 -382 269 -514 213 -162 519 -178 755 -39
83 49 186 152 234 234 21 35 49 100 64 144 23 69 27 97 27 205 1 133 -15 204
-69 310 -138 272 -464 423 -760 351z"/>
<path d="M3357 1662 c-31 -19 -57 -68 -57 -107 0 -43 28 -79 89 -116 99 -60
182 -41 212 48 20 61 -8 112 -88 159 -57 33 -117 39 -156 16z"/>
<path d="M3235 1151 c-45 -20 -70 -60 -70 -112 0 -42 5 -53 33 -81 32 -32 34
-33 122 -33 88 0 90 1 122 33 28 28 33 39 33 82 0 43 -5 54 -33 82 -30 31 -37
33 -110 35 -42 2 -86 -1 -97 -6z"/>
<path d="M3392 642 c-87 -51 -110 -105 -76 -177 17 -35 65 -65 107 -65 28 0
111 42 145 73 76 71 32 197 -71 203 -35 2 -56 -5 -105 -34z"/>
<path d="M3795 320 c-43 -17 -115 -128 -115 -177 0 -38 27 -87 59 -106 65 -38
131 -12 181 71 58 95 43 182 -36 211 -35 13 -61 13 -89 1z"/>
</g>
</svg>
